# xmcd
#
# Track frame offsets: 
#        150
#        15000
#        28170
#        39587
#        57150
#        75140
#        86172
#        101905
#        111745
#        126092
#        139790
#        151612
#        165532
#        179760
#        203710
#        215115
#        227020
#
# Disc length: 3203 seconds
#
# Revision: 2
# Processed by: cddbd v1.5.2PL0 Copyright (c) Steve Scherf et al.
# Submitted via: ExactAudioCopyFreeDBPlugin 1.0
#
DISCID=e00c8111
DTITLE=Glenn Miller - The Best Of Glenn Miller [CD2)
DYEAR=1999
DGENRE=Jazz
TTITLE0=In The Mood
TTITLE1=April In Paris
TTITLE2=Hallelujah
TTITLE3=Anvil Chorus
TTITLE4=In A Sentimental Mood
TTITLE5=Chatanooga Choo Choo
TTITLE6=Tuxedo Junction
TTITLE7=Serenade In Blue
TTITLE8=Stardust
TTITLE9=Little Brown Jug
TTITLE10=Bugle Call Rag
TTITLE11=Adios
TTITLE12=Farewell Blues
TTITLE13=Johnson Rag
TTITLE14=Lover
TTITLE15=Baby Me
TTITLE16=Seven O Five
EXTD=YEAR: 1999
EXTT0=
EXTT1=
EXTT2=
EXTT3=
EXTT4=
EXTT5=
EXTT6=
EXTT7=
EXTT8=
EXTT9=
EXTT10=
EXTT11=
EXTT12=
EXTT13=
EXTT14=
EXTT15=
EXTT16=
PLAYORDER=
